<?xml version="1.0" encoding="UTF-8"?><svg id="Layer_1" xmlns="http://www.w3.org/2000/svg" xmlns:xlink="http://www.w3.org/1999/xlink" viewBox="0 0 330 130"><defs><style>.cls-1{fill:#0d252c;}.cls-2{fill:#4979ff;}</style><symbol id="AiFi_Logo" viewBox="0 0 331.02 130.68"><path class="cls-2" d="m112.59,78.7c-2.43,5.01-2.72,5.43-3.75,3.13-2.3-5.14-1.92-13.73-4.34-28.55-2.74-16.7-17.99-4.91-27.13,18.46-5.19,13.27-6.5,17.48-7.3,17.58-.37.05-.82-.47-1.29-1.65-2.71-6.91-3.95-13-7.8-31.19-1.98-9.33-5.48-33.69-7.19-43.35C52.31,4.72,47.78.7,44.18.14c-4.29-.67-9,1.12-12.38,3.85C21.53,12.28,15.31,24.62,10.71,37.05,1.28,62.54-1.43,88.46.67,115.61c.18,2.27.82,6.38,1.87,9.96.64,2.18,2.37,4.32,4.54,4.94,2.6.75,5.01-1.1,6.85-3.47,1.66-2.14,2.59-5.34,3.66-7.84,6.33-14.81,11.66-28.92,18.32-42.93.77-1.61-.09-3.32-1.93-3.39-2.79-.1-8.5,1.19-16.1,16.28-3.84,7.62-3.97,8.3-4.36,8.34-.46.05-1.35.85-.43-10.11,3.15-37.31,18.82-68.65,22.74-65.66,4.16,3.17,3.76,23.38,11.76,51.45,8,28.07,15.96,41.06,24.12,38.43,4.19-1.35,5.7-5.57,7.87-11,3.66-9.15,7.67-18.48,10.51-25.4,4.39-10.7,4.13-6.03,4.13-6.03,1.88,14.76,6.09,32.08,13.92,31.05,7.14-.93,9.83-12.28,13.93-21.97l4-9.57c.49-1.22.08-3-1.78-2.97-2.08.03-6.02,1.72-11.7,12.99"/><path class="cls-1" d="m170.59,48.43l23.2,52.1c.05.11-.03.22-.15.22h-3.07c-3.82,0-7.41-2.07-9.16-5.57l-7.51-17.83c-1.51-3.63-3.69-10.22-3.69-10.22,0,0-2.32,6.72-3.83,10.35l-2.36,5.98h4.22c3.03,0,8.18.89,9.54,7.27l-16.68-.04-1.6,3.95c-1.47,3.53-5.14,6.11-8.96,6.11h-2.88c-.2,0-.34-.21-.26-.39l22.61-52.48.57.55Zm50.09,3.37v7.46h10.03v-10.05h-7.45c-1.43,0-2.59,1.16-2.59,2.59Zm0,18.85v30.13c5.85,0,10.03-4.77,10.03-10.63v-29.51l-.98.05c-5.31.39-9.05,5.32-9.05,9.96Zm100.3-18.85v7.46h10.03v-10.05h-7.45c-1.43,0-2.59,1.16-2.59,2.59Zm0,18.85v30.13c5.85,0,10.03-4.77,10.03-10.63v-29.51l-.98.05c-5.31.39-9.05,5.32-9.05,9.96Zm-46.32,1.4v-10.48c0-1.26,1.02-2.28,2.28-2.28h13.45c5.14,0,9.32-3.55,9.32-8.69h-24.54c-6.35,0-9.98,4.24-9.98,9.75v40.42c5.25,0,9.39-3.97,9.39-9.78v-11.63l12.25.03c4.21,0,7.82-2.84,7.82-7.37l-20,.02Z"/></symbol></defs><use width="331.02" height="130.68" transform="translate(.35)" xlink:href="#AiFi_Logo"/></svg>