<?xml version="1.0" encoding="UTF-8"?><svg id="Layer_1" xmlns="http://www.w3.org/2000/svg" xmlns:xlink="http://www.w3.org/1999/xlink" viewBox="0 0 332 138"><defs><style>.cls-1{fill:#0d252c;}.cls-2{fill:#b6bec0;}.cls-3{fill:#4979ff;}</style><symbol id="AiFi_Logo_Partner" viewBox="0 0 125.89 52.21"><path class="cls-3" d="m42.65,32.52c-.92,1.9-1.03,2.06-1.42,1.18-.87-1.95-.73-5.2-1.65-10.81-1.04-6.33-6.82-1.86-10.28,6.99-1.96,5.03-2.46,6.62-2.77,6.66-.14.02-.31-.18-.49-.63-1.03-2.62-1.49-4.93-2.96-11.81-.75-3.53-2.08-12.76-2.72-16.42-.56-3.18-2.27-4.71-3.64-4.92-1.62-.25-3.41.43-4.69,1.46-3.89,3.14-6.25,7.81-7.99,12.52C.49,26.4-.54,36.22.25,46.5c.07.86.31,2.42.71,3.77.24.83.9,1.64,1.72,1.87.99.28,1.9-.41,2.6-1.32.63-.81.98-2.02,1.39-2.97,2.4-5.61,4.42-10.96,6.94-16.26.29-.61-.03-1.26-.73-1.28-1.06-.04-3.22.45-6.1,6.17-1.45,2.89-1.5,3.14-1.65,3.16-.18.02-.51.32-.16-3.83,1.19-14.13,7.13-26,8.61-24.87,1.58,1.2,1.42,8.86,4.45,19.49,3.03,10.63,6.05,15.55,9.14,14.56,1.59-.51,2.16-2.11,2.98-4.17,1.39-3.47,2.9-7,3.98-9.62,1.66-4.05,1.56-2.28,1.56-2.28.71,5.59,2.31,12.15,5.27,11.76,2.7-.35,3.72-4.65,5.28-8.32l1.52-3.63c.19-.46.03-1.14-.67-1.13-.79.01-2.28.65-4.43,4.92"/><path class="cls-1" d="m64.62,21.06l8.79,19.74s-.01.08-.05.08h-1.16c-1.45,0-2.81-.78-3.47-2.11l-2.85-6.75c-.57-1.38-1.4-3.87-1.4-3.87,0,0-.88,2.55-1.45,3.92l-.89,2.26h1.6c1.15,0,3.1.34,3.61,2.75l-6.32-.02-.61,1.5c-.56,1.34-1.95,2.31-3.39,2.31h-1.09c-.08,0-.13-.08-.1-.15l8.57-19.88.22.21Zm18.97,1.28v2.83h3.8v-3.81h-2.82c-.54,0-.98.44-.98.98Zm0,7.14v11.41c2.22,0,3.8-1.81,3.8-4.03v-11.18l-.37.02c-2.01.15-3.43,2.02-3.43,3.77Zm37.99-7.14v2.83h3.8v-3.81h-2.82c-.54,0-.98.44-.98.98Zm0,7.14v11.41c2.22,0,3.8-1.81,3.8-4.03v-11.18l-.37.02c-2.01.15-3.43,2.02-3.43,3.77Zm-17.55.53v-3.97c0-.48.39-.86.86-.86h5.09c1.95,0,3.53-1.35,3.53-3.29h-9.29c-2.4,0-3.78,1.61-3.78,3.69v15.31c1.99,0,3.56-1.5,3.56-3.71v-4.4h4.64c1.6.01,2.96-1.06,2.96-2.78h-7.58Z"/><path class="cls-2" d="m43.42,6.65c0,2.33-1.61,3.84-3.8,3.84-.95,0-1.79-.32-2.4-1.01v3.63h-1.75V2.91h1.67v.98c.59-.71,1.46-1.06,2.48-1.06,2.19,0,3.8,1.51,3.8,3.82Zm-1.78,0c0-1.43-.95-2.34-2.21-2.34s-2.23.91-2.23,2.34.97,2.34,2.23,2.34,2.21-.91,2.21-2.34Zm3.52,0c0-2.24,1.68-3.82,3.98-3.82s3.99,1.58,3.99,3.82-1.67,3.84-3.99,3.84-3.98-1.6-3.98-3.84Zm6.21,0c0-1.43-.95-2.34-2.23-2.34s-2.21.91-2.21,2.34.95,2.34,2.21,2.34,2.23-.91,2.23-2.34Zm15.6-3.74l-2.76,7.48h-1.68l-1.93-5.15-1.96,5.15h-1.68l-2.75-7.48h1.65l1.97,5.52,2.06-5.52h1.47l2.02,5.55,2.03-5.55h1.56Zm8.69,4.3h-5.87c.21,1.09,1.12,1.79,2.42,1.79.84,0,1.5-.27,2.03-.81l.94,1.08c-.67.8-1.72,1.22-3.01,1.22-2.51,0-4.13-1.61-4.13-3.84s1.64-3.82,3.87-3.82,3.78,1.53,3.78,3.87c0,.14-.01.35-.03.52Zm-5.88-1.16h4.24c-.14-1.08-.97-1.82-2.12-1.82s-1.96.73-2.13,1.82Zm12.62-3.22v1.67c-.15-.03-.28-.04-.41-.04-1.33,0-2.17.78-2.17,2.31v3.63h-1.75V2.91h1.67v1.09c.5-.79,1.42-1.18,2.66-1.18Zm9.12,4.38h-5.87c.21,1.09,1.12,1.79,2.42,1.79.84,0,1.5-.27,2.03-.81l.94,1.08c-.67.8-1.72,1.22-3.01,1.22-2.51,0-4.13-1.61-4.13-3.84s1.64-3.82,3.87-3.82,3.78,1.53,3.78,3.87c0,.14-.01.35-.03.52Zm-5.88-1.16h4.24c-.14-1.08-.97-1.82-2.12-1.82s-1.96.73-2.13,1.82Zm15.61-6.05v10.39h-1.68v-.97c-.59.71-1.46,1.06-2.48,1.06-2.17,0-3.78-1.51-3.78-3.84s1.61-3.82,3.78-3.82c.97,0,1.82.32,2.41,1.01V0h1.75Zm-1.72,6.65c0-1.43-.97-2.34-2.23-2.34s-2.23.91-2.23,2.34.97,2.34,2.23,2.34,2.23-.91,2.23-2.34Zm17.22,0c0,2.33-1.61,3.84-3.8,3.84-1.02,0-1.89-.35-2.48-1.06v.97h-1.67V0h1.75v3.82c.6-.67,1.44-1,2.4-1,2.19,0,3.8,1.5,3.8,3.82Zm-1.78,0c0-1.43-.95-2.34-2.21-2.34s-2.23.91-2.23,2.34.97,2.34,2.23,2.34,2.21-.91,2.21-2.34Zm10.93-3.74l-3.5,8.08c-.69,1.69-1.64,2.21-2.89,2.21-.74,0-1.53-.25-2-.69l.7-1.29c.34.32.81.52,1.29.52.62,0,.98-.29,1.32-1.04l.13-.29-3.26-7.51h1.82l2.35,5.53,2.37-5.53h1.68Z"/></symbol></defs><use width="125.89" height="52.21" transform="translate(.35 .86) scale(2.63)" xlink:href="#AiFi_Logo_Partner"/></svg>