<?xml version="1.0" encoding="UTF-8"?><svg id="Layer_1" xmlns="http://www.w3.org/2000/svg" viewBox="0 0 330 130"><defs><style>.cls-1{fill:#fff;}.cls-2{fill:#4979ff;}</style></defs><path class="cls-2" d="m112.35,78.29c-2.42,4.98-2.7,5.4-3.73,3.11-2.28-5.11-1.91-13.66-4.32-28.4-2.72-16.62-17.9-4.89-26.99,18.37-5.16,13.2-6.47,17.38-7.27,17.49-.36.05-.82-.47-1.28-1.65-2.7-6.88-3.93-12.94-7.76-31.02-1.97-9.28-5.46-33.52-7.15-43.13C52.38,4.7,47.88.69,44.3.14c-4.27-.66-8.95,1.12-12.32,3.83C21.77,12.22,15.58,24.49,11,36.86,1.62,62.22-1.08,88.01,1.01,115.01c.17,2.26.82,6.35,1.86,9.91.64,2.17,2.36,4.3,4.52,4.92,2.59.74,4.98-1.09,6.82-3.46,1.66-2.13,2.58-5.31,3.64-7.8,6.29-14.73,11.6-28.77,18.22-42.71.76-1.61-.09-3.31-1.92-3.37-2.77-.09-8.46,1.19-16.02,16.19-3.82,7.58-3.95,8.26-4.34,8.3-.46.05-1.34.84-.42-10.06,3.13-37.12,18.72-68.29,22.62-65.32,4.14,3.16,3.74,23.26,11.7,51.18,7.96,27.92,15.88,40.85,23.99,38.24,4.17-1.34,5.67-5.54,7.83-10.94,3.64-9.11,7.63-18.38,10.45-25.27,4.37-10.65,4.11-6,4.11-6,1.87,14.68,6.06,31.91,13.84,30.89,7.1-.93,9.77-12.21,13.86-21.85l3.98-9.52c.49-1.22.08-2.98-1.77-2.96-2.07.03-5.99,1.71-11.64,12.92"/><path class="cls-1" d="m170.06,48.18l23.08,51.83c.05.1-.03.22-.14.22h-3.05c-3.8,0-7.37-2.06-9.11-5.54l-7.47-17.74c-1.51-3.61-3.67-10.16-3.67-10.16,0,0-2.31,6.69-3.81,10.3l-2.35,5.95h4.2c3.01,0,8.13.88,9.49,7.23l-16.59-.04-1.59,3.93c-1.46,3.51-5.11,6.08-8.91,6.08h-2.87c-.2,0-.34-.21-.26-.39l22.5-52.21.56.55Zm49.83,3.35v7.42h9.98v-9.99h-7.41c-1.42,0-2.57,1.15-2.57,2.57Zm0,18.75v29.97c5.82,0,9.98-4.75,9.98-10.57v-29.36l-.98.05c-5.28.39-9.01,5.29-9.01,9.91Zm99.78-18.75v7.42h9.98v-9.99h-7.41c-1.42,0-2.57,1.15-2.57,2.57Zm0,18.75v29.97c5.82,0,9.98-4.75,9.98-10.57v-29.36l-.98.05c-5.28.39-9.01,5.29-9.01,9.91Zm-46.08,1.4v-10.42c0-1.25,1.01-2.27,2.27-2.27h13.38c5.11,0,9.28-3.53,9.28-8.65h-24.41c-6.31,0-9.92,4.22-9.92,9.7v40.21c5.23,0,9.35-3.95,9.35-9.73v-11.57l12.19.03c4.19,0,7.78-2.82,7.78-7.33l-19.9.02Z"/></svg>